<svg width="14" height="13" viewBox="0 0 14 13" fill="none" xmlns="http://www.w3.org/2000/svg">
<g clip-path="url(#clip0_5_336)">
<path d="M12.1064 13.0005H9.5255C8.48323 13.0005 7.63185 12.1605 7.63185 11.1238V8.04789C7.63185 7.84737 7.46769 7.68468 7.26534 7.68468H6.36051C6.15817 7.68468 5.994 7.84737 5.994 8.04789V11.1238C5.994 12.1567 5.14644 13.0005 4.10035 13.0005H1.89365C0.851377 13.0005 0 12.1605 0 11.1238V5.26704C0 4.65033 0.305427 4.07525 0.817017 3.72338L5.75348 0.337179C6.38724 -0.0979196 7.21571 -0.10927 7.86474 0.306912L13.1372 3.71582C13.6755 4.0639 13.9962 4.65033 13.9962 5.28596V11.1238C13.9962 12.1567 13.1486 13.0005 12.1025 13.0005H12.1064ZM6.36051 6.17129H7.26534C8.30761 6.17129 9.15899 7.01122 9.15899 8.04789V11.1238C9.15899 11.3244 9.32315 11.4871 9.5255 11.4871H12.1064C12.3087 11.4871 12.4729 11.3244 12.4729 11.1238V5.28596C12.4729 5.16489 12.4118 5.05138 12.3087 4.98328L7.03245 1.57437C6.90646 1.49492 6.74611 1.49492 6.62394 1.58194L1.68367 4.96815C1.5844 5.03625 1.52713 5.14597 1.52713 5.26704V11.1238C1.52713 11.3244 1.6913 11.4871 1.89365 11.4871H4.10417C4.30652 11.4871 4.47069 11.3244 4.47069 11.1238V8.04789C4.47069 7.015 5.31824 6.17129 6.36433 6.17129H6.36051Z" fill="#8B8A8B"/>
</g>
<defs>
<clipPath id="clip0_5_336">
<rect width="14" height="13" fill="white"/>
</clipPath>
</defs>
</svg>
