<svg width="11" height="14" viewBox="0 0 11 14" fill="none" xmlns="http://www.w3.org/2000/svg">
<g clip-path="url(#clip0_5_324)">
<path d="M9.17655 14H1.82032C0.81493 14 0 13.1914 0 12.2006V1.79938C0 0.808642 0.818053 0 1.82032 0H5.19869C5.76072 0 6.28839 0.216049 6.68493 0.608025L10.3818 4.26235C10.7783 4.65432 10.9969 5.17593 10.9969 5.73148V12.1975C10.9969 13.1914 10.1788 13.9969 9.17655 13.9969V14ZM1.82032 1.23457C1.50497 1.23457 1.24894 1.48765 1.24894 1.79938V12.1975C1.24894 12.5093 1.50497 12.7623 1.82032 12.7623H9.17655C9.49191 12.7623 9.74794 12.5093 9.74794 12.1975V5.73148C9.74794 5.50617 9.66052 5.2963 9.49815 5.1358L5.80131 1.48148C5.64207 1.32407 5.4235 1.23457 5.19869 1.23457H1.82032Z" fill="#8B8A8B"/>
<path d="M10.3756 6.23148H6.05426C5.23933 6.23148 4.57739 5.57716 4.57739 4.77161V0.617284C4.57739 0.277778 4.8584 0 5.20186 0C5.54532 0 5.82633 0.277778 5.82633 0.617284V4.77161C5.82633 4.89506 5.92937 4.99691 6.05426 4.99691H10.3756C10.719 4.99691 11 5.27469 11 5.6142C11 5.9537 10.719 6.23148 10.3756 6.23148Z" fill="#8B8A8B"/>
<path d="M7.78717 8.82405H2.98189C2.63843 8.82405 2.35742 8.54627 2.35742 8.20676C2.35742 7.86726 2.63843 7.58948 2.98189 7.58948H7.78717C8.13063 7.58948 8.41164 7.86726 8.41164 8.20676C8.41164 8.54627 8.13063 8.82405 7.78717 8.82405Z" fill="#8B8A8B"/>
<path d="M7.78717 11.2346H2.98189C2.63843 11.2346 2.35742 10.9568 2.35742 10.6173C2.35742 10.2778 2.63843 10 2.98189 10H7.78717C8.13063 10 8.41164 10.2778 8.41164 10.6173C8.41164 10.9568 8.13063 11.2346 7.78717 11.2346Z" fill="#8B8A8B"/>
</g>
<defs>
<clipPath id="clip0_5_324">
<rect width="11" height="14" fill="white"/>
</clipPath>
</defs>
</svg>
