<svg width="14" height="15" viewBox="0 0 14 15" fill="none" xmlns="http://www.w3.org/2000/svg">
<path d="M6.17111 12.7725C2.76875 12.7725 0 9.90718 0 6.38623C0 2.86527 2.76875 0 6.17111 0C9.57347 0 12.3422 2.86527 12.3422 6.38623C12.3422 9.90718 9.57347 12.7725 6.17111 12.7725ZM6.17111 1.79641C3.7235 1.79641 1.7359 3.85778 1.7359 6.38623C1.7359 8.91467 3.72784 10.976 6.17111 10.976C8.61438 10.976 10.6063 8.91467 10.6063 6.38623C10.6063 3.85778 8.61872 1.79641 6.17111 1.79641Z" fill="#8B8A8B"/>
<path d="M13.1321 15C12.9108 15 12.6894 14.9102 12.5202 14.735L9.16556 11.2635C8.82706 10.9132 8.82706 10.3428 9.16556 9.99252C9.50406 9.64222 10.0552 9.64222 10.3937 9.99252L13.7483 13.4641C14.0868 13.8144 14.0868 14.3847 13.7483 14.735C13.5791 14.9102 13.3577 15 13.1364 15H13.1321Z" fill="#8B8A8B"/>
</svg>
